<?xml version="1.0" standalone="no"?><!DOCTYPE svg PUBLIC "-//W3C//DTD SVG 1.1//EN" "http://www.w3.org/Graphics/SVG/1.1/DTD/svg11.dtd"><svg t="1673473929779" class="icon" viewBox="0 0 1024 1024" version="1.1" xmlns="http://www.w3.org/2000/svg" p-id="3719" data-darkreader-inline-fill="" width="200" height="200" xmlns:xlink="http://www.w3.org/1999/xlink"><path d="M960 480v359h-79v89l-134-89H422V480z" fill="#C3D2FB" p-id="3720" style="--darkreader-inline-fill: #2a2e2f;" data-darkreader-inline-fill=""></path><path d="M64 122v494h112v111l172-111h455V122z" fill="#386BF3" p-id="3721" style="--darkreader-inline-fill: #0a35a7;" data-darkreader-inline-fill=""></path><path d="M231.9 365.4m-56 0a56 56 0 1 0 112 0 56 56 0 1 0-112 0Z" fill="#3D4265" p-id="3722" style="--darkreader-inline-fill: #a3b2c7;" data-darkreader-inline-fill=""></path><path d="M635.1 365.4m-56 0a56 56 0 1 0 112 0 56 56 0 1 0-112 0Z" fill="#3D4265" p-id="3723" style="--darkreader-inline-fill: #a3b2c7;" data-darkreader-inline-fill=""></path><path d="M433.5 365.4m-56 0a56 56 0 1 0 112 0 56 56 0 1 0-112 0Z" fill="#3D4265" p-id="3724" style="--darkreader-inline-fill: #a3b2c7;" data-darkreader-inline-fill=""></path></svg>