<?xml version="1.0" standalone="no"?><!DOCTYPE svg PUBLIC "-//W3C//DTD SVG 1.1//EN" "http://www.w3.org/Graphics/SVG/1.1/DTD/svg11.dtd"><svg t="1673472503353" class="icon" viewBox="0 0 1024 1024" version="1.1" xmlns="http://www.w3.org/2000/svg" p-id="5317" data-darkreader-inline-fill="" xmlns:xlink="http://www.w3.org/1999/xlink" width="200" height="200"><path d="M791.272727 139.636364H232.727273a93.090909 93.090909 0 0 0-93.090909 93.090909v558.545454a93.090909 93.090909 0 0 0 93.090909 93.090909h558.545454a93.090909 93.090909 0 0 0 93.090909-93.090909V232.727273a93.090909 93.090909 0 0 0-93.090909-93.090909z m46.545455 651.636363a46.545455 46.545455 0 0 1-46.545455 46.545455H232.727273a46.545455 46.545455 0 0 1-46.545455-46.545455V232.727273a46.545455 46.545455 0 0 1 46.545455-46.545455h558.545454a46.545455 46.545455 0 0 1 46.545455 46.545455z" p-id="5318"></path><path d="M526.661818 529.92a139.636364 139.636364 0 1 0-168.96 0A209.454545 209.454545 0 0 0 232.727273 721.454545a23.272727 23.272727 0 0 0 46.545454 0 162.909091 162.909091 0 0 1 325.818182 0 23.272727 23.272727 0 0 0 46.545455 0 209.454545 209.454545 0 0 0-124.974546-191.534545zM349.090909 418.909091a93.090909 93.090909 0 1 1 93.090909 93.090909 93.090909 93.090909 0 0 1-93.090909-93.090909zM768 325.818182h-46.545455a23.272727 23.272727 0 0 0 0 46.545454h46.545455a23.272727 23.272727 0 0 0 0-46.545454zM768 465.454545h-46.545455a23.272727 23.272727 0 0 0 0 46.545455h46.545455a23.272727 23.272727 0 0 0 0-46.545455zM768 605.090909h-46.545455a23.272727 23.272727 0 0 0 0 46.545455h46.545455a23.272727 23.272727 0 0 0 0-46.545455z" p-id="5319"></path></svg>