<?xml version="1.0" standalone="no"?>
<!DOCTYPE svg PUBLIC "-//W3C//DTD SVG 20010904//EN"
 "http://www.w3.org/TR/2001/REC-SVG-20010904/DTD/svg10.dtd">
<svg version="1.0" xmlns="http://www.w3.org/2000/svg"
 width="512.000000pt" height="512.000000pt" viewBox="0 0 512.000000 512.000000"
 preserveAspectRatio="xMidYMid meet">

<g transform="translate(0.000000,512.000000) scale(0.100000,-0.100000)"
fill="#000000" stroke="none">
<path d="M2422 5025 c-286 -62 -502 -331 -502 -625 0 -273 189 -529 450 -611
223 -70 469 -8 641 161 251 249 251 649 0 901 -156 155 -376 220 -589 174z
m253 -160 c256 -67 415 -329 350 -578 -45 -173 -178 -307 -350 -352 -251 -65
-513 94 -580 350 -89 342 238 669 580 580z"/>
<path d="M2480 4756 c0 -40 -2 -44 -30 -49 -42 -9 -107 -77 -121 -129 -23 -88
12 -182 87 -228 27 -18 58 -25 122 -29 66 -5 87 -10 96 -24 21 -33 -4 -52 -72
-55 -53 -3 -63 0 -74 18 -11 17 -23 20 -92 20 l-78 0 6 -31 c11 -55 39 -101
79 -130 22 -16 48 -29 59 -29 15 0 18 -8 18 -45 l0 -45 80 0 80 0 0 44 c0 40
2 44 30 49 16 4 47 24 68 45 92 92 75 245 -34 312 -27 18 -58 25 -122 29 -66
5 -87 10 -96 24 -21 33 4 52 72 55 53 3 63 0 74 -18 11 -17 23 -20 92 -20 l79
0 -7 31 c-11 55 -39 101 -79 130 -22 16 -48 29 -59 29 -15 0 -18 8 -18 45 l0
45 -80 0 -80 0 0 -44z"/>
<path d="M582 4145 c-286 -62 -502 -331 -502 -625 0 -273 189 -529 450 -611
223 -70 469 -8 641 161 251 249 251 649 0 901 -156 155 -376 220 -589 174z
m253 -160 c256 -67 415 -329 350 -578 -45 -173 -178 -307 -350 -352 -251 -65
-513 94 -580 350 -89 342 238 669 580 580z"/>
<path d="M880 3520 l0 -240 80 0 80 0 0 240 0 240 -80 0 -80 0 0 -240z"/>
<path d="M640 3440 l0 -160 80 0 80 0 0 160 0 160 -80 0 -80 0 0 -160z"/>
<path d="M400 3360 l0 -80 80 0 80 0 0 80 0 80 -80 0 -80 0 0 -80z"/>
<path d="M4260 4145 c-176 -38 -351 -175 -429 -337 -94 -194 -94 -382 0 -576
101 -210 331 -352 569 -352 237 0 461 139 568 350 99 198 94 423 -15 610 -139
238 -421 363 -693 305z m255 -160 c256 -67 415 -329 350 -580 -20 -75 -67
-164 -111 -206 l-34 -33 0 86 c0 95 -11 137 -48 186 -21 29 -68 65 -95 75 -5
1 1 19 13 40 13 21 24 61 27 94 4 50 1 65 -24 113 -41 79 -102 115 -193 115
-91 0 -152 -36 -193 -115 -25 -48 -28 -63 -24 -113 3 -33 14 -73 27 -94 13
-22 18 -39 11 -41 -29 -10 -79 -52 -105 -90 -28 -39 -30 -51 -36 -149 l-5
-106 -37 41 c-162 180 -154 462 19 643 119 125 294 176 458 134z m-75 -285
c11 -11 20 -29 20 -40 0 -11 -9 -29 -20 -40 -11 -11 -29 -20 -40 -20 -11 0
-29 9 -40 20 -11 11 -20 29 -20 40 0 11 9 29 20 40 11 11 29 20 40 20 11 0 29
-9 40 -20z m104 -356 c13 -12 16 -41 16 -145 l0 -129 -27 -12 c-16 -7 -75 -12
-133 -12 -58 0 -117 5 -132 12 l-28 12 0 129 c0 104 3 133 16 145 12 13 40 16
144 16 104 0 132 -3 144 -16z"/>
<path d="M3094 3629 c-299 -74 -301 -75 -319 -109 -22 -43 -11 -69 61 -141
l64 -64 -142 -142 -143 -143 -150 149 c-82 82 -160 152 -172 156 -13 3 -34 0
-50 -9 -15 -8 -129 -116 -253 -240 l-225 -226 58 -57 57 -58 200 200 200 200
153 -153 c137 -137 156 -152 187 -152 31 0 51 17 215 180 l181 180 59 -61 c33
-33 70 -65 82 -69 30 -12 77 5 91 33 16 30 122 460 122 492 0 38 -16 62 -48
73 -23 8 -67 0 -228 -39z m86 -161 c0 -16 -37 -158 -42 -164 -2 -2 -35 28 -73
66 l-68 68 39 11 c21 5 55 14 74 19 50 14 70 14 70 0z"/>
<path d="M1705 2455 c-25 -24 -25 -26 -25 -215 0 -189 0 -191 25 -215 13 -14
31 -25 40 -25 13 0 15 -18 15 -120 l0 -120 -375 0 -376 0 -24 -25 c-25 -24
-25 -26 -25 -215 0 -189 0 -191 25 -215 13 -14 31 -25 40 -25 13 0 15 -59 15
-535 l0 -536 25 -24 24 -25 336 0 c276 0 335 -2 335 -14 0 -7 9 -25 21 -40
l20 -26 755 0 755 0 24 25 c14 13 25 31 25 40 0 13 40 15 335 15 l336 0 24 25
25 24 0 536 c0 476 2 535 15 535 9 0 27 11 40 25 25 24 25 26 25 215 0 189 0
191 -25 215 l-24 25 -376 0 -375 0 0 120 c0 102 2 120 15 120 9 0 27 11 40 25
25 24 25 26 25 215 0 189 0 191 -25 215 l-24 25 -831 0 -831 0 -24 -25z m1575
-215 l0 -80 -720 0 -720 0 0 80 0 80 720 0 720 0 0 -80z m-80 -1120 l0 -880
-160 0 -160 0 0 215 c0 216 0 216 -25 240 l-24 25 -271 0 -271 0 -24 -25 c-25
-24 -25 -24 -25 -240 l0 -215 -160 0 -160 0 0 880 0 880 640 0 640 0 0 -880z
m-1440 400 l0 -80 -320 0 -320 0 0 80 0 80 320 0 320 0 0 -80z m2240 0 l0 -80
-320 0 -320 0 0 80 0 80 320 0 320 0 0 -80z m-2240 -720 l0 -480 -280 0 -280
0 0 480 0 480 280 0 280 0 0 -480z m2160 0 l0 -480 -280 0 -280 0 0 480 0 480
280 0 280 0 0 -480z m-1200 -400 l0 -160 -160 0 -160 0 0 160 0 160 160 0 160
0 0 -160z"/>
<path d="M2105 1815 c-24 -23 -25 -28 -25 -175 0 -147 1 -152 25 -175 23 -24
28 -25 175 -25 147 0 152 1 175 25 24 23 25 28 25 175 0 147 -1 152 -25 175
-23 24 -28 25 -175 25 -147 0 -152 -1 -175 -25z m215 -175 l0 -40 -40 0 -40 0
0 40 0 40 40 0 40 0 0 -40z"/>
<path d="M2665 1815 c-24 -23 -25 -28 -25 -175 0 -147 1 -152 25 -175 23 -24
28 -25 175 -25 147 0 152 1 175 25 24 23 25 28 25 175 0 147 -1 152 -25 175
-23 24 -28 25 -175 25 -147 0 -152 -1 -175 -25z m215 -175 l0 -40 -40 0 -40 0
0 40 0 40 40 0 40 0 0 -40z"/>
<path d="M2105 1255 c-24 -23 -25 -28 -25 -175 0 -147 1 -152 25 -175 23 -24
28 -25 175 -25 147 0 152 1 175 25 24 23 25 28 25 175 0 147 -1 152 -25 175
-23 24 -28 25 -175 25 -147 0 -152 -1 -175 -25z m215 -175 l0 -40 -40 0 -40 0
0 40 0 40 40 0 40 0 0 -40z"/>
<path d="M2665 1255 c-24 -23 -25 -28 -25 -175 0 -147 1 -152 25 -175 23 -24
28 -25 175 -25 147 0 152 1 175 25 24 23 25 28 25 175 0 147 -1 152 -25 175
-23 24 -28 25 -175 25 -147 0 -152 -1 -175 -25z m215 -175 l0 -40 -40 0 -40 0
0 40 0 40 40 0 40 0 0 -40z"/>
</g>
</svg>
