<?xml version="1.0" standalone="no"?><!DOCTYPE svg PUBLIC "-//W3C//DTD SVG 1.1//EN" "http://www.w3.org/Graphics/SVG/1.1/DTD/svg11.dtd"><svg t="1673472463500" class="icon" viewBox="0 0 1024 1024" version="1.1" xmlns="http://www.w3.org/2000/svg" p-id="4242" data-darkreader-inline-fill="" xmlns:xlink="http://www.w3.org/1999/xlink" width="200" height="200"><path d="M881 926c-17.7 0-32-14.3-32-32V380.8L503.1 141 159 380.7V894c0 17.7-14.3 32-32 32s-32-14.3-32-32V364c0-10.5 5.1-20.3 13.7-26.3l364.7-254c17.7-12.4 41.6-12.4 59.3-0.1l366.5 254.1c8.6 6 13.8 15.8 13.8 26.3v530c0 17.7-14.3 32-32 32z" p-id="4243"></path><path d="M259.8 575.6c-5.4 0-10.8-2.2-14.7-6.4l-64.4-69.8c-7.5-8.1-7-20.8 1.1-28.3l69.8-64.4c8.1-7.5 20.8-7 28.3 1.1l64.4 69.8c7.5 8.1 7 20.8-1.1 28.3l-69.8 64.4c-3.9 3.6-8.7 5.3-13.6 5.3z m-36.2-88.7l37.3 40.4 40.4-37.3-37.3-40.4-40.4 37.3zM310 743h-95c-11 0-20-9-20-20v-95c0-11 9-20 20-20h95c11 0 20 9 20 20v95c0 11-9 20-20 20z m-75-40h55v-55h-55v55zM492 743h-95c-11 0-20-9-20-20v-95c0-11 9-20 20-20h95c11 0 20 9 20 20v95c0 11-9 20-20 20z m-75-40h55v-55h-55v55zM310 914h-95c-11 0-20-9-20-20v-95c0-11 9-20 20-20h95c11 0 20 9 20 20v95c0 11-9 20-20 20z m-75-40h55v-55h-55v55zM492 914h-95c-11 0-20-9-20-20v-95c0-11 9-20 20-20h95c11 0 20 9 20 20v95c0 11-9 20-20 20z m-75-40h55v-55h-55v55zM675.8 914h-95c-11 0-20-9-20-20v-95c0-11 9-20 20-20h95c11 0 20 9 20 20v95c0 11-9 20-20 20z m-75-40h55v-55h-55v55z" p-id="4244"></path></svg>